<svg width="24" height="13" viewBox="0 0 24 13" fill="none" xmlns="http://www.w3.org/2000/svg">
<path d="M17.265 0.612297C16.875 0.222297 16.245 0.222297 15.855 0.612297L10.215 6.2523L11.625 7.6623L17.265 2.0123C17.645 1.6323 17.645 0.992297 17.265 0.612297ZM21.505 0.602297L11.625 10.4823L8.14498 7.0123C7.75498 6.6223 7.12498 6.6223 6.73498 7.0123C6.34498 7.4023 6.34498 8.0323 6.73498 8.4223L10.915 12.6023C11.305 12.9923 11.935 12.9923 12.325 12.6023L22.915 2.0223C23.305 1.6323 23.305 1.0023 22.915 0.612297H22.905C22.525 0.212297 21.895 0.212297 21.505 0.602297ZM1.08498 8.4323L5.26498 12.6123C5.65498 13.0023 6.28498 13.0023 6.67498 12.6123L7.37498 11.9123L2.49498 7.0123C2.10498 6.6223 1.47498 6.6223 1.08498 7.0123C0.69498 7.4023 0.69498 8.0423 1.08498 8.4323Z" fill="#2E90FA"/>
</svg>
